<svg width="24" height="24" viewBox="0 0 24 24" fill="none" xmlns="http://www.w3.org/2000/svg">
<path d="M15.5 2.5L6 11.5H18L8 20.5" stroke="#EC232B" stroke-width="1.5" stroke-linecap="round" stroke-linejoin="round"/>
<path d="M8.76785 21.9065C7.93406 22.1031 7.51717 22.2013 7.22458 22.0849C6.96909 21.9833 6.76672 21.7809 6.66508 21.5254C6.54867 21.2328 6.64694 20.8159 6.84346 19.9821L7.33489 17.8972C7.44246 17.4408 7.49624 17.2127 7.62222 17.1061C7.73204 17.0133 7.87653 16.9722 8.01877 16.9934C8.18195 17.0177 8.34771 17.1835 8.67924 17.515L11.235 20.0708C11.5665 20.4023 11.7323 20.568 11.7566 20.7312C11.7778 20.8735 11.7367 21.018 11.6439 21.1278C11.5373 21.2538 11.3092 21.3075 10.8528 21.4151L8.76785 21.9065Z" fill="#EC232B"/>
</svg>
