<svg width="24" height="24" viewBox="0 0 24 24" fill="none" xmlns="http://www.w3.org/2000/svg">
<path d="M8.76785 21.9065C7.93406 22.1031 7.51717 22.2013 7.22458 22.0849C6.96909 21.9833 6.76672 21.7809 6.66508 21.5254C6.54867 21.2328 6.64694 20.8159 6.84346 19.9821L7.33489 17.8972C7.44246 17.4408 7.49624 17.2127 7.62222 17.1061C7.73204 17.0133 7.87653 16.9722 8.01877 16.9934C8.18195 17.0177 8.34771 17.1835 8.67924 17.515L11.235 20.0708C11.5665 20.4023 11.7323 20.568 11.7566 20.7312C11.7778 20.8735 11.7367 21.018 11.6439 21.1278C11.5373 21.2538 11.3092 21.3075 10.8528 21.4151L8.76785 21.9065Z" fill="white"/>
<path d="M3.26465 3.51459L20.2352 20.4851" stroke="white" stroke-width="1.5" stroke-linecap="round"/>
<path fill-rule="evenodd" clip-rule="evenodd" d="M8.7105 7.89906L5.48422 10.9555C5.26132 11.1667 5.18965 11.4924 5.3033 11.7776C5.41696 12.0629 5.69299 12.25 6.00003 12.25H13.0614L11.5614 10.75H7.88221L9.77155 8.96011L8.7105 7.89906ZM13.6828 10.75L15.1828 12.25H16.0456L15.5915 12.6587L16.6536 13.7208L18.5017 12.0575C18.7326 11.8497 18.8115 11.5212 18.7002 11.2313C18.589 10.9414 18.3106 10.75 18 10.75H13.6828ZM15.5371 14.7257L14.475 13.6635L7.4983 19.9425C7.19042 20.2196 7.16546 20.6938 7.44256 21.0017C7.71965 21.3096 8.19387 21.3346 8.50175 21.0575L15.5371 14.7257ZM10.8609 7.92812L9.79982 6.86707L14.9842 1.95554C15.2849 1.67066 15.7596 1.68349 16.0445 1.98419C16.3294 2.28489 16.3165 2.75959 16.0158 3.04447L10.8609 7.92812Z" fill="white"/>
</svg>
