<svg width="25" height="24" viewBox="0 0 25 24" fill="none" xmlns="http://www.w3.org/2000/svg">
<g id="Icons">
<path id="Union" fill-rule="evenodd" clip-rule="evenodd" d="M6.75 3.25C6.75 4.2165 5.9665 5 5 5C4.0335 5 3.25 4.2165 3.25 3.25C3.25 2.2835 4.0335 1.5 5 1.5C5.9665 1.5 6.75 2.2835 6.75 3.25ZM19.5 5C20.4665 5 21.25 4.2165 21.25 3.25C21.25 2.2835 20.4665 1.5 19.5 1.5C18.5335 1.5 17.75 2.2835 17.75 3.25C17.75 4.2165 18.5335 5 19.5 5ZM12.25 4.25C9.62665 4.25 7.5 6.37665 7.5 9V13C7.5 15.6234 9.62665 17.75 12.25 17.75C14.8734 17.75 17 15.6234 17 13V12H15.5V13C15.5 14.7949 14.0449 16.25 12.25 16.25C10.4551 16.25 9 14.7949 9 13V9C9 7.20507 10.4551 5.75 12.25 5.75C14.0449 5.75 15.5 7.20507 15.5 9H17C17 6.37665 14.8734 4.25 12.25 4.25ZM12.25 23.5C13.2165 23.5 14 22.7165 14 21.75C14 20.7835 13.2165 20 12.25 20C11.2835 20 10.5 20.7835 10.5 21.75C10.5 22.7165 11.2835 23.5 12.25 23.5Z" fill="white"/>
</g>
</svg>
