<svg width="24" height="24" viewBox="0 0 24 24" fill="none" xmlns="http://www.w3.org/2000/svg">
<path d="M10.5 1.5L1 10.5H13L3 19.5" stroke="#EC232B" stroke-width="1.5" stroke-linecap="round" stroke-linejoin="round"/>
<path d="M3.76785 20.9065C2.93406 21.1031 2.51717 21.2013 2.22458 21.0849C1.96909 20.9833 1.76672 20.7809 1.66508 20.5254C1.54867 20.2328 1.64694 19.8159 1.84346 18.9821L2.33489 16.8972C2.44246 16.4408 2.49624 16.2127 2.62222 16.1061C2.73204 16.0133 2.87653 15.9722 3.01877 15.9934C3.18195 16.0177 3.34771 16.1835 3.67924 16.515L6.23497 19.0708C6.5665 19.4023 6.73226 19.568 6.75659 19.7312C6.77779 19.8735 6.73672 20.018 6.64386 20.1278C6.53734 20.2538 6.30916 20.3075 5.85282 20.4151L3.76785 20.9065Z" fill="#EC232B"/>
<path fill-rule="evenodd" clip-rule="evenodd" d="M18.5 23C21.2614 23 23.5 20.7614 23.5 18C23.5 15.2386 21.2614 13 18.5 13C15.7386 13 13.5 15.2386 13.5 18C13.5 20.7614 15.7386 23 18.5 23ZM17.5469 14.9297L15.6055 20.75H17.1367L17.5171 19.5117H19.4539L19.8477 20.75H21.3945L19.3945 14.9297H17.5469ZM19.1186 18.457L19.0391 18.207C18.9089 17.7826 18.7826 17.332 18.6602 16.8555C18.5924 16.5844 18.5242 16.3079 18.4556 16.026C18.391 16.3097 18.3277 16.5875 18.2656 16.8594C18.1562 17.3359 18.0404 17.7852 17.918 18.207L17.8412 18.457H19.1186Z" fill="#EC232B"/>
</svg>
