<svg width="24" height="24" viewBox="0 0 24 24" fill="none" xmlns="http://www.w3.org/2000/svg">
<path fill-rule="evenodd" clip-rule="evenodd" d="M12 2.25C11.5857 2.25 11.25 2.58579 11.25 3V6.5C11.25 6.91421 11.5857 7.25 12 7.25C12.4142 7.25 12.75 6.91421 12.75 6.5V3.78363C16.9548 4.16255 20.25 7.69647 20.25 12C20.25 12.4142 20.5857 12.75 21 12.75C21.4142 12.75 21.75 12.4142 21.75 12C21.75 6.61522 17.3847 2.25 12 2.25ZM7.00484 5.82314C7.32688 5.56264 7.79913 5.61252 8.05963 5.93457L12.5852 11.5292C12.8457 11.8512 12.7958 12.3234 12.4738 12.584C12.1517 12.8445 11.6795 12.7946 11.419 12.4725L6.89342 6.87793C6.63291 6.55589 6.6828 6.08365 7.00484 5.82314ZM12.6633 21.0311C12.6427 21.583 12.1786 22.0136 11.6267 21.993C11.0748 21.9724 10.6441 21.5082 10.6647 20.9563C10.6854 20.4044 11.1495 19.9738 11.7014 19.9944C12.2533 20.015 12.684 20.4792 12.6633 21.0311ZM16.6731 20.841C17.1614 20.5829 17.348 19.9779 17.09 19.4896C16.8319 19.0013 16.2268 18.8147 15.7386 19.0728C15.2503 19.3308 15.0637 19.9359 15.3217 20.4241C15.5798 20.9124 16.1849 21.099 16.6731 20.841ZM20.1519 15.9411C20.6196 16.2349 20.7605 16.8522 20.4667 17.3198C20.1728 17.7875 19.5555 17.9284 19.0879 17.6346C18.6203 17.3407 18.4794 16.7234 18.7732 16.2558C19.067 15.7882 19.6843 15.6473 20.1519 15.9411ZM4.00566 11.7014C4.0263 11.1495 3.59563 10.6854 3.04373 10.6647C2.49183 10.6441 2.0277 11.0748 2.00706 11.6267C1.98642 12.1786 2.41709 12.6427 2.96899 12.6633C3.52089 12.684 3.98502 12.2533 4.00566 11.7014ZM3.57547 15.3211C4.06375 15.0631 4.66879 15.2497 4.92687 15.738C5.18494 16.2262 4.99832 16.8313 4.51004 17.0894C4.02177 17.3474 3.41673 17.1608 3.15865 16.6725C2.90058 16.1843 3.08719 15.5792 3.57547 15.3211ZM7.74363 18.7735C7.27599 18.4797 6.6587 18.6206 6.36488 19.0883C6.07105 19.5559 6.21196 20.1732 6.67959 20.467C7.14723 20.7608 7.76452 20.6199 8.05834 20.1523C8.35217 19.6847 8.21126 19.0674 7.74363 18.7735Z" fill="white"/>
</svg>
