<svg width="25" height="24" viewBox="0 0 25 24" fill="none" xmlns="http://www.w3.org/2000/svg">
<g clip-path="url(#clip0_5001_30157)">
<path d="M3.93115 3.51489L20.9017 20.4855" stroke="white" stroke-width="1.5" stroke-linecap="round"/>
<path fill-rule="evenodd" clip-rule="evenodd" d="M18.8906 17.4131C17.3781 19.1508 15.15 20.2492 12.6653 20.2492C8.10898 20.2492 4.41533 16.5555 4.41533 11.9992C4.41533 10.9446 4.61283 9.93795 4.97218 9.01292C5.12217 8.62682 4.93076 8.19223 4.54466 8.04224C4.15855 7.89225 3.72396 8.08366 3.57397 8.46976C3.14843 9.5652 2.91533 10.7559 2.91533 11.9992C2.91533 17.384 7.28056 21.7492 12.6653 21.7492C15.5642 21.7492 18.1675 20.4841 19.9535 18.4759L18.8906 17.4131ZM20.8691 17.2702C21.8476 15.7504 22.4153 13.9411 22.4153 11.9992C22.4153 6.61441 18.0501 2.24919 12.6653 2.24919C12.2511 2.24919 11.9153 2.58497 11.9153 2.99919V6.49919C11.9153 6.9134 12.2511 7.24919 12.6653 7.24919C13.0795 7.24919 13.4153 6.9134 13.4153 6.49919V3.78282C17.6202 4.16174 20.9153 7.69566 20.9153 11.9992C20.9153 13.525 20.5011 14.9541 19.779 16.1801L20.8691 17.2702Z" fill="white"/>
</g>
<defs>
<clipPath id="clip0_5001_30157">
<rect width="24" height="24" fill="white" transform="translate(0.666504)"/>
</clipPath>
</defs>
</svg>
